<?xml version="1.0" encoding="utf-8"?>
<!-- Generator: Adobe Illustrator 18.1.1, SVG Export Plug-In . SVG Version: 6.00 Build 0)  -->
<svg version="1.1" id="Layer_1" xmlns="http://www.w3.org/2000/svg" xmlns:xlink="http://www.w3.org/1999/xlink" x="0px" y="0px"
	 viewBox="0 0 1440 1440" enable-background="new 0 0 1440 1440" xml:space="preserve">
<g>
	<path d="M150.3,218.5h24.6v88.6h-24.6V218.5z"/>
	<path d="M186.2,255.1c8.5-1,12.9-5.1,12.7-11.9h-9.7v-24.7h24.9v20.1c0,18.7-10.1,25.2-26,25.7L186.2,255.1z"/>
	<path d="M227,218.5h26l21.1,34.3l21.1-34.3h26v88.6h-24.4v-50.9l-22.7,34.7h-0.5l-22.5-34.6v50.8H227V218.5z"/>
	<path d="M365.3,293.9l13.7-16.3c8.9,7,18.5,10.6,28.7,10.6c6.7,0,10.3-2.3,10.3-6.1v-0.3c0-3.8-2.9-5.7-15.1-8.6
		c-18.9-4.3-33.4-9.6-33.4-27.7v-0.3c0-16.5,13-28.4,34.3-28.4c15.1,0,26.8,4.1,36.5,11.8l-12.3,17.3c-8.1-5.8-17-8.7-24.8-8.7
		c-6,0-8.9,2.4-8.9,5.7v0.3c0,4.1,3,5.8,15.4,8.6c20.3,4.4,32.9,11,32.9,27.6v0.3c0,18.1-14.3,28.9-35.8,28.9
		C391.1,308.6,376.3,303.7,365.3,293.9z"/>
	<path d="M451.6,263v-0.3c0-25.5,20.5-46.1,47.9-46.1c27.3,0,47.6,20.4,47.6,45.8v0.3c0,25.4-20.5,46.1-47.9,46.1
		C471.9,308.9,451.6,288.5,451.6,263z M521.9,263v-0.3c0-12.9-9.1-23.9-22.7-23.9c-13.5,0-22.5,10.9-22.5,23.7v0.3
		c0,12.8,9.2,23.9,22.8,23.9C512.9,286.7,521.9,275.8,521.9,263z"/>
	<path d="M559.7,218.5h41.9c13.5,0,22.9,3.5,28.9,9.5c5.2,5.2,7.9,11.9,7.9,20.6v0.3c0,13.7-7.2,22.7-18.2,27.3l21.1,30.9H613
		l-17.9-26.8h-10.9v26.8h-24.6V218.5z M600.6,261c8.2,0,13.2-4.1,13.2-10.5v-0.3c0-7.1-5.2-10.6-13.3-10.6h-16.2V261H600.6z"/>
	<path d="M650.8,218.5h41.9c13.5,0,22.9,3.5,28.9,9.5c5.2,5.2,7.8,11.9,7.8,20.6v0.3c0,13.7-7.2,22.7-18.2,27.3l21.1,30.9h-28.2
		l-17.9-26.8h-10.9v26.8h-24.6V218.5z M691.7,261c8.2,0,13.2-4.1,13.2-10.5v-0.3c0-7.1-5.2-10.6-13.3-10.6h-16.2V261H691.7z"/>
	<path d="M764.3,273.9l-33.8-55.5h28l18.2,32.3l18.4-32.3h27.5l-33.7,55.1v33.6h-24.6V273.9z"/>
	<path d="M865.3,218.5h34.3c31.5,0,49.9,18.2,49.9,43.8v0.3c0,25.6-18.6,44.6-50.4,44.6h-33.8V218.5z M889.8,240.1v45.2h10
		c14.8,0,24.6-8.1,24.6-22.4v-0.3c0-14.2-9.7-22.5-24.6-22.5H889.8z"/>
	<path d="M986.6,217.8h23.7l37.7,89.3h-26.3l-6.3-16H981l-6.3,16H949L986.6,217.8z M1008.1,272l-9.9-25.1l-10,25.1H1008.1z"/>
	<path d="M1036.9,218.5h27.3l20.1,56.1l20.3-56.1h26.8l-36,89.3h-22.8L1036.9,218.5z"/>
	<path d="M1140.1,218.5h71.3v20.8h-47v13.5h42.5v19.4h-42.5v14.1h47.6v20.9h-71.9V218.5z"/>
	<path d="M1219.4,318.8c8.5-0.9,13-5.1,12.7-11.9h-9.6v-24.7h24.9v20.1c0,18.7-10.3,25.2-26,25.7L1219.4,318.8z"/>
	<path d="M150.3,397.8h24.6v88.6h-24.6V397.8z"/>
	<path d="M186.2,434.4c8.5-1,12.9-5.1,12.7-11.9h-9.7v-24.7h24.9V418c0,18.7-10.1,25.2-26,25.7L186.2,434.4z"/>
	<path d="M227,397.8h26l21.1,34.3l21.1-34.3h26v88.6h-24.4v-50.9l-22.7,34.7h-0.5l-22.5-34.6v50.8H227V397.8z"/>
	<path d="M402.6,397.2h23.7l37.7,89.3h-26.3l-6.3-16H397l-6.3,16H365L402.6,397.2z M424.1,451.4l-9.9-25.1l-10,25.1H424.1z"/>
	<path d="M472.6,397.8h70.9v21.5h-46.3v15.1h41.9v20.4h-41.9v31.7h-24.6V397.8z"/>
	<path d="M554.8,397.8h41.9c13.5,0,22.9,3.5,28.9,9.5c5.2,5.2,7.9,11.9,7.9,20.6v0.3c0,13.7-7.2,22.7-18.2,27.3l21.1,30.9h-28.2
		l-17.9-26.8h-10.9v26.8h-24.6V397.8z M595.7,440.4c8.2,0,13.2-4.1,13.2-10.5v-0.3c0-7.1-5.2-10.6-13.3-10.6h-16.2v21.4H595.7z"/>
	<path d="M674.8,397.2h23.7l37.7,89.3h-26.3l-6.3-16h-34.3l-6.3,16h-25.7L674.8,397.2z M696.4,451.4l-9.9-25.1l-10,25.1H696.4z"/>
	<path d="M745.5,397.8H770v88.6h-24.6V397.8z"/>
	<path d="M786.3,397.8h34.3c31.5,0,49.9,18.2,49.9,43.8v0.3c0,25.6-18.6,44.6-50.4,44.6h-33.8V397.8z M810.8,419.5v45.2h10
		c14.8,0,24.6-8.1,24.6-22.4V442c0-14.2-9.7-22.5-24.6-22.5H810.8z"/>
	<path d="M150.3,577.2h24.6v88.6h-24.6V577.2z"/>
	<path d="M223.2,621.8v-0.3c0-25.8,19.8-46.1,46.6-46.1c18.1,0,29.8,7.6,37.6,18.4l-18.5,14.3c-5.1-6.2-10.9-10.4-19.4-10.4
		c-12.4,0-21.1,10.6-21.1,23.6v0.3c0,13.3,8.7,23.7,21.1,23.7c9.2,0,14.7-4.3,20-10.8l18.5,13.2c-8.4,11.5-19.6,20-39.1,20
		C243.6,667.6,223.2,648.3,223.2,621.8z"/>
	<path d="M348.6,576.6h23.7l37.7,89.3h-26.3l-6.3-16H343l-6.3,16h-25.7L348.6,576.6z M370.1,630.8l-9.9-25.1l-10,25.1H370.1z"/>
	<path d="M418.6,577.2h22.9l36.5,46.8v-46.8h24.3v88.6h-21.4l-38-48.6v48.6h-24.3V577.2z"/>
	<path d="M513.1,613.8c8.5-1,12.9-5.1,12.7-11.9h-9.7v-24.7H541v20.1c0,18.7-10.1,25.2-26,25.7L513.1,613.8z"/>
	<path d="M575.6,598.7h-26.5v-21.5h77.6v21.5h-26.6v67.1h-24.6V598.7z"/>
	<path d="M672.6,577.2h34.3c31.5,0,49.9,18.2,49.9,43.8v0.3c0,25.6-18.6,44.6-50.4,44.6h-33.8V577.2z M697.1,598.9v45.2h10
		c14.8,0,24.6-8.1,24.6-22.4v-0.3c0-14.2-9.7-22.5-24.6-22.5H697.1z"/>
	<path d="M766.6,621.8v-0.3c0-25.5,20.5-46.1,47.9-46.1c27.3,0,47.6,20.4,47.6,45.8v0.3c0,25.4-20.5,46.1-47.9,46.1
		C786.9,667.6,766.6,647.2,766.6,621.8z M836.9,621.8v-0.3c0-12.9-9.1-23.9-22.7-23.9c-13.5,0-22.5,10.9-22.5,23.7v0.3
		c0,12.8,9.2,23.9,22.8,23.9C827.9,645.5,836.9,634.6,836.9,621.8z"/>
	<path d="M931.5,598.7H905v-21.5h77.6v21.5H956v67.1h-24.6V598.7z"/>
	<path d="M993.4,577.2h24.6v33.2h31.5v-33.2h24.6v88.6h-24.6v-33.7H1018v33.7h-24.6V577.2z"/>
	<path d="M1120.4,576.6h23.7l37.7,89.3h-26.3l-6.3-16h-34.3l-6.3,16h-25.7L1120.4,576.6z M1141.9,630.8l-9.9-25.1l-10,25.1H1141.9z"
		/>
	<path d="M1200.7,598.7h-26.5v-21.5h77.6v21.5h-26.6v67.1h-24.6V598.7z"/>
	<path d="M1247.6,641.2h24.9v24.7h-24.9V641.2z"/>
</g>
</svg>
